<svg width="178" height="45" viewBox="0 0 178 45" fill="none" xmlns="http://www.w3.org/2000/svg">
<circle cx="22.5" cy="22.5" r="22.5" fill="#009BD6"/>
<path d="M22.5001 36.6768C20.5389 36.6768 18.696 36.3047 16.9711 35.5604C15.2463 34.8161 13.7459 33.806 12.47 32.5301C11.1941 31.2542 10.184 29.7538 9.43967 28.029C8.69538 26.3041 8.32324 24.4611 8.32324 22.5C8.32324 20.5389 8.69538 18.6959 9.43967 16.971C10.184 15.2462 11.1941 13.7458 12.47 12.4699C13.7459 11.194 15.2463 10.1839 16.9711 9.43961C18.696 8.69532 20.5389 8.32318 22.5001 8.32318C24.0359 8.32318 25.489 8.54765 26.8594 8.99658C28.2299 9.44551 29.494 10.0717 30.6518 10.875L28.5961 12.9661C27.6982 12.399 26.7413 11.956 25.7253 11.637C24.7093 11.318 23.6342 11.1585 22.5001 11.1585C19.3575 11.1585 16.6817 12.2632 14.4724 14.4724C12.2632 16.6816 11.1586 19.3575 11.1586 22.5C11.1586 25.6425 12.2632 28.3184 14.4724 30.5276C16.6817 32.7369 19.3575 33.8415 22.5001 33.8415C25.6426 33.8415 28.3185 32.7369 30.5277 30.5276C32.7369 28.3184 33.8415 25.6425 33.8415 22.5C33.8415 22.0747 33.8179 21.6494 33.7707 21.2241C33.7234 20.7988 33.6525 20.3853 33.558 19.9836L35.8617 17.6799C36.1216 18.436 36.3225 19.2157 36.4643 20.0191C36.606 20.8224 36.6769 21.6494 36.6769 22.5C36.6769 24.4611 36.3048 26.3041 35.5605 28.029C34.8162 29.7538 33.8061 31.2542 32.5302 32.5301C31.2543 33.806 29.7539 34.8161 28.029 35.5604C26.3042 36.3047 24.4612 36.6768 22.5001 36.6768ZM20.5153 29.0214L14.4902 22.9962L16.4749 21.0114L20.5153 25.0518L34.6921 10.8396L36.6769 12.8243L20.5153 29.0214Z" fill="white"/>
<path d="M22.5001 36.6768C20.5389 36.6768 18.696 36.3047 16.9711 35.5604C15.2463 34.8161 13.7459 33.806 12.47 32.5301C11.1941 31.2542 10.184 29.7538 9.43967 28.029C8.69538 26.3041 8.32324 24.4611 8.32324 22.5C8.32324 20.5389 8.69538 18.6959 9.43967 16.971C10.184 15.2462 11.1941 13.7458 12.47 12.4699C13.7459 11.194 15.2463 10.1839 16.9711 9.43961C18.696 8.69532 20.5389 8.32318 22.5001 8.32318C24.0359 8.32318 25.489 8.54765 26.8594 8.99658C28.2299 9.44551 29.494 10.0717 30.6518 10.875L28.5961 12.9661C27.6982 12.399 26.7413 11.956 25.7253 11.637C24.7093 11.318 23.6342 11.1585 22.5001 11.1585C19.3575 11.1585 16.6817 12.2632 14.4724 14.4724C12.2632 16.6816 11.1586 19.3575 11.1586 22.5C11.1586 25.6425 12.2632 28.3184 14.4724 30.5276C16.6817 32.7369 19.3575 33.8415 22.5001 33.8415C25.6426 33.8415 28.3185 32.7369 30.5277 30.5276C32.7369 28.3184 33.8415 25.6425 33.8415 22.5C33.8415 22.0747 33.8179 21.6494 33.7707 21.2241C33.7234 20.7988 33.6525 20.3853 33.558 19.9836L35.8617 17.6799C36.1216 18.436 36.3225 19.2157 36.4643 20.0191C36.606 20.8224 36.6769 21.6494 36.6769 22.5C36.6769 24.4611 36.3048 26.3041 35.5605 28.029C34.8162 29.7538 33.8061 31.2542 32.5302 32.5301C31.2543 33.806 29.7539 34.8161 28.029 35.5604C26.3042 36.3047 24.4612 36.6768 22.5001 36.6768Z" fill="#00B8FF" fill-opacity="0.1"/>
<path d="M62.218 30.256C60.5753 30.256 59.2473 29.7173 58.234 28.64C57.21 27.5627 56.698 26.1173 56.698 24.304C56.698 22.48 57.2047 21.0293 58.218 19.952C59.2207 18.8853 60.554 18.352 62.218 18.352C63.5513 18.352 64.6873 18.7093 65.626 19.424C66.5647 20.1387 67.1513 21.1733 67.386 22.528H65.194C65.002 21.7813 64.6447 21.216 64.122 20.832C63.61 20.4373 62.9753 20.24 62.218 20.24C61.2047 20.24 60.4047 20.6027 59.818 21.328C59.242 22.0427 58.954 23.0347 58.954 24.304C58.954 25.584 59.242 26.5813 59.818 27.296C60.394 28.0107 61.194 28.368 62.218 28.368C63.0073 28.368 63.6847 28.1333 64.25 27.664C64.8153 27.1947 65.1567 26.544 65.274 25.712H67.434C67.2953 27.1627 66.73 28.2827 65.738 29.072C64.7567 29.8613 63.5833 30.256 62.218 30.256ZM73.1878 21.552C74.0838 21.552 74.7878 21.8133 75.2998 22.336C75.8224 22.848 76.0838 23.5787 76.0838 24.528V30H74.0678V24.864C74.0678 23.8187 73.5504 23.296 72.5158 23.296C72.0038 23.296 71.5664 23.4827 71.2038 23.856C70.8518 24.2187 70.6758 24.7253 70.6758 25.376V30H68.6598V18.608H70.6758V22.848C71.3051 21.984 72.1424 21.552 73.1878 21.552ZM85.5143 26.016V26.496H79.3383C79.4129 27.2 79.6316 27.7333 79.9943 28.096C80.3676 28.448 80.8636 28.624 81.4823 28.624C82.3996 28.624 83.0289 28.2293 83.3703 27.44H85.3063C85.0929 28.2827 84.6449 28.9547 83.9623 29.456C83.2796 29.9467 82.4476 30.192 81.4663 30.192C80.2396 30.192 79.2476 29.7973 78.4903 29.008C77.7329 28.2187 77.3543 27.1733 77.3543 25.872C77.3543 24.5707 77.7276 23.5253 78.4743 22.736C79.2316 21.9467 80.2183 21.552 81.4343 21.552C82.6823 21.552 83.6743 21.9627 84.4103 22.784C85.1463 23.6053 85.5143 24.6827 85.5143 26.016ZM81.4183 23.12C80.2343 23.12 79.5463 23.776 79.3543 25.088H83.4983C83.4129 24.48 83.1889 24 82.8263 23.648C82.4636 23.296 81.9943 23.12 81.4183 23.12ZM90.528 30.192C89.312 30.192 88.3253 29.7973 87.568 29.008C86.8213 28.2293 86.448 27.184 86.448 25.872C86.448 24.5493 86.8213 23.4987 87.568 22.72C88.304 21.9413 89.2907 21.552 90.528 21.552C91.6053 21.552 92.4853 21.84 93.168 22.416C93.8507 22.9813 94.2507 23.7493 94.368 24.72H92.352C92.256 24.24 92.048 23.872 91.728 23.616C91.408 23.36 91.008 23.232 90.528 23.232C89.8987 23.232 89.4027 23.4613 89.04 23.92C88.688 24.368 88.512 25.0187 88.512 25.872C88.512 26.7253 88.6933 27.3813 89.056 27.84C89.4187 28.288 89.9093 28.512 90.528 28.512C91.0187 28.512 91.4293 28.3787 91.76 28.112C92.1013 27.8347 92.3093 27.44 92.384 26.928H94.4C94.2933 27.92 93.888 28.7147 93.184 29.312C92.48 29.8987 91.5947 30.192 90.528 30.192ZM103.44 30H101.136L98.7355 26.16L97.4875 27.408V30H95.5035V18.608H97.4875V25.168L100.848 21.744H103.248L100.128 24.864L103.44 30ZM112.058 21.744V23.28H110.426V27.744C110.426 28.0107 110.495 28.1973 110.634 28.304C110.783 28.4107 111.028 28.464 111.37 28.464H112.058V30C111.62 30.0427 111.268 30.064 111.002 30.064C110.106 30.064 109.45 29.8987 109.034 29.568C108.628 29.2267 108.426 28.688 108.426 27.952V23.28H107.146V21.744H108.426V19.344H110.426V21.744H112.058ZM117.766 21.552C118.662 21.552 119.366 21.8133 119.878 22.336C120.401 22.848 120.662 23.5787 120.662 24.528V30H118.646V24.864C118.646 23.8187 118.129 23.296 117.094 23.296C116.582 23.296 116.145 23.4827 115.782 23.856C115.43 24.2187 115.254 24.7253 115.254 25.376V30H113.238V18.608H115.254V22.848C115.883 21.984 116.721 21.552 117.766 21.552ZM130.092 26.016V26.496H123.916C123.991 27.2 124.21 27.7333 124.572 28.096C124.946 28.448 125.442 28.624 126.06 28.624C126.978 28.624 127.607 28.2293 127.948 27.44H129.884C129.671 28.2827 129.223 28.9547 128.54 29.456C127.858 29.9467 127.026 30.192 126.044 30.192C124.818 30.192 123.826 29.7973 123.068 29.008C122.311 28.2187 121.932 27.1733 121.932 25.872C121.932 24.5707 122.306 23.5253 123.052 22.736C123.81 21.9467 124.796 21.552 126.012 21.552C127.26 21.552 128.252 21.9627 128.988 22.784C129.724 23.6053 130.092 24.6827 130.092 26.016ZM125.996 23.12C124.812 23.12 124.124 23.776 123.932 25.088H128.076C127.991 24.48 127.767 24 127.404 23.648C127.042 23.296 126.572 23.12 125.996 23.12ZM142.271 24C142.901 24.224 143.386 24.5813 143.727 25.072C144.079 25.5627 144.255 26.1173 144.255 26.736C144.255 27.7707 143.914 28.576 143.231 29.152C142.559 29.7173 141.578 30 140.287 30H134.959V18.608H140.111C141.306 18.608 142.218 18.88 142.847 19.424C143.477 19.968 143.791 20.6773 143.791 21.552C143.791 22.672 143.285 23.488 142.271 24ZM139.951 20.384H137.119V23.36H139.951C140.495 23.36 140.911 23.2267 141.199 22.96C141.498 22.6827 141.647 22.304 141.647 21.824C141.647 21.376 141.498 21.024 141.199 20.768C140.901 20.512 140.485 20.384 139.951 20.384ZM137.119 28.208H140.175C140.783 28.208 141.247 28.0747 141.567 27.808C141.887 27.5307 142.047 27.1413 142.047 26.64C142.047 25.584 141.423 25.056 140.175 25.056H137.119V28.208ZM153.614 25.872C153.614 27.1733 153.23 28.2187 152.462 29.008C151.694 29.7973 150.68 30.192 149.422 30.192C148.163 30.192 147.15 29.7973 146.382 29.008C145.603 28.2293 145.214 27.184 145.214 25.872C145.214 24.56 145.603 23.5147 146.382 22.736C147.15 21.9467 148.163 21.552 149.422 21.552C150.68 21.552 151.694 21.9413 152.462 22.72C153.23 23.4987 153.614 24.5493 153.614 25.872ZM147.838 27.84C148.222 28.2987 148.75 28.528 149.422 28.528C150.094 28.528 150.616 28.2987 150.99 27.84C151.374 27.3707 151.566 26.7147 151.566 25.872C151.566 25.0293 151.374 24.3787 150.99 23.92C150.616 23.4507 150.094 23.216 149.422 23.216C148.75 23.216 148.222 23.4453 147.838 23.904C147.464 24.3627 147.278 25.0187 147.278 25.872C147.278 26.7253 147.464 27.3813 147.838 27.84ZM162.209 30H160.193C160.097 29.8293 160.022 29.4933 159.969 28.992C159.414 29.792 158.529 30.192 157.313 30.192C156.406 30.192 155.681 29.9733 155.137 29.536C154.603 29.0987 154.337 28.4907 154.337 27.712C154.337 26.208 155.393 25.3493 157.505 25.136L158.753 25.024C159.169 24.9707 159.467 24.8747 159.649 24.736C159.83 24.5867 159.921 24.368 159.921 24.08C159.921 23.728 159.803 23.472 159.569 23.312C159.345 23.1413 158.961 23.056 158.417 23.056C157.83 23.056 157.409 23.1573 157.153 23.36C156.897 23.552 156.747 23.888 156.705 24.368H154.721C154.838 22.4907 156.075 21.552 158.433 21.552C160.726 21.552 161.873 22.3787 161.873 24.032V28.432C161.873 29.1573 161.985 29.68 162.209 30ZM157.793 28.752C158.422 28.752 158.934 28.5813 159.329 28.24C159.723 27.888 159.921 27.3867 159.921 26.736V25.984C159.729 26.1547 159.414 26.2667 158.977 26.32L157.889 26.448C157.355 26.512 156.971 26.64 156.737 26.832C156.513 27.0133 156.401 27.28 156.401 27.632C156.401 27.984 156.518 28.2613 156.753 28.464C156.998 28.656 157.345 28.752 157.793 28.752ZM167.826 21.616C168.007 21.616 168.172 21.6267 168.322 21.648V23.504H167.81C167.042 23.504 166.45 23.7013 166.034 24.096C165.628 24.48 165.426 25.0507 165.426 25.808V30H163.41V21.744H165.362V23.216C165.82 22.1493 166.642 21.616 167.826 21.616ZM174.923 22.816V18.608H176.939V30H174.987V28.848C174.379 29.744 173.509 30.192 172.379 30.192C171.237 30.192 170.336 29.7973 169.675 29.008C169.003 28.2187 168.667 27.1733 168.667 25.872C168.667 24.5493 169.003 23.4987 169.675 22.72C170.325 21.9413 171.227 21.552 172.379 21.552C173.488 21.552 174.336 21.9733 174.923 22.816ZM170.731 25.936C170.731 26.7893 170.917 27.4347 171.291 27.872C171.664 28.3093 172.181 28.528 172.843 28.528C173.504 28.528 174.027 28.2987 174.411 27.84C174.784 27.3813 174.971 26.7253 174.971 25.872C174.971 25.0187 174.784 24.3627 174.411 23.904C174.037 23.4453 173.515 23.216 172.843 23.216C172.192 23.216 171.675 23.456 171.291 23.936C170.917 24.416 170.731 25.0827 170.731 25.936Z" fill="#009BD6"/>
</svg>
