<svg width="152" height="125" viewBox="0 0 152 125" fill="none" xmlns="http://www.w3.org/2000/svg">
<circle cx="76" cy="41" r="41" fill="#009BD6"/>
<path d="M76.0001 66.8333C72.4265 66.8333 69.0681 66.1552 65.9251 64.7989C62.782 63.4427 60.048 61.602 57.723 59.277C55.398 56.952 53.5574 54.218 52.2011 51.075C50.8449 47.9319 50.1667 44.5736 50.1667 41C50.1667 37.4263 50.8449 34.068 52.2011 30.925C53.5574 27.7819 55.398 25.0479 57.723 22.7229C60.048 20.3979 62.782 18.5573 65.9251 17.201C69.0681 15.8448 72.4265 15.1666 76.0001 15.1666C78.7987 15.1666 81.4466 15.5757 83.9438 16.3937C86.4411 17.2118 88.7445 18.3527 90.8542 19.8166L87.1084 23.627C85.4723 22.5937 83.7286 21.7864 81.8772 21.2052C80.0258 20.6239 78.0667 20.3333 76.0001 20.3333C70.2737 20.3333 65.3977 22.3461 61.372 26.3718C57.3463 30.3975 55.3334 35.2736 55.3334 41C55.3334 46.7263 57.3463 51.6024 61.372 55.6281C65.3977 59.6538 70.2737 61.6666 76.0001 61.6666C81.7265 61.6666 86.6025 59.6538 90.6282 55.6281C94.6539 51.6024 96.6667 46.7263 96.6667 41C96.6667 40.225 96.6237 39.45 96.5376 38.675C96.4515 37.9 96.3223 37.1465 96.1501 36.4145L100.348 32.2166C100.822 33.5944 101.188 35.0152 101.446 36.4791C101.704 37.943 101.833 39.45 101.833 41C101.833 44.5736 101.155 47.9319 99.799 51.075C98.4428 54.218 96.6022 56.952 94.2772 59.277C91.9522 61.602 89.2181 63.4427 86.0751 64.7989C82.932 66.1552 79.5737 66.8333 76.0001 66.8333ZM72.3834 52.8833L61.4042 41.9041L65.0209 38.2875L72.3834 45.65L98.2167 19.752L101.833 23.3687L72.3834 52.8833Z" fill="white"/>
<path d="M76.0001 66.8333C72.4265 66.8333 69.0681 66.1552 65.9251 64.7989C62.782 63.4427 60.048 61.602 57.723 59.277C55.398 56.952 53.5574 54.218 52.2011 51.075C50.8449 47.9319 50.1667 44.5736 50.1667 41C50.1667 37.4263 50.8449 34.068 52.2011 30.925C53.5574 27.7819 55.398 25.0479 57.723 22.7229C60.048 20.3979 62.782 18.5573 65.9251 17.201C69.0681 15.8448 72.4265 15.1666 76.0001 15.1666C78.7987 15.1666 81.4466 15.5757 83.9438 16.3937C86.4411 17.2118 88.7445 18.3527 90.8543 19.8166L87.1084 23.627C85.4723 22.5937 83.7286 21.7864 81.8772 21.2052C80.0258 20.6239 78.0667 20.3333 76.0001 20.3333C70.2737 20.3333 65.3977 22.3461 61.372 26.3718C57.3463 30.3975 55.3334 35.2736 55.3334 41C55.3334 46.7264 57.3463 51.6024 61.372 55.6281C65.3977 59.6538 70.2737 61.6666 76.0001 61.6666C81.7265 61.6666 86.6025 59.6538 90.6282 55.6281C94.6539 51.6024 96.6668 46.7264 96.6668 41C96.6668 40.225 96.6237 39.45 96.5376 38.675C96.4515 37.9 96.3223 37.1465 96.1501 36.4145L100.348 32.2166C100.822 33.5944 101.188 35.0152 101.446 36.4791C101.704 37.943 101.833 39.45 101.833 41C101.833 44.5736 101.155 47.9319 99.799 51.075C98.4428 54.218 96.6022 56.952 94.2772 59.277C91.9522 61.602 89.2181 63.4427 86.0751 64.7989C82.932 66.1552 79.5737 66.8333 76.0001 66.8333Z" fill="#00B8FF" fill-opacity="0.1"/>
<path d="M7.5225 118.32C5.46917 118.32 3.80917 117.647 2.5425 116.3C1.2625 114.953 0.6225 113.147 0.6225 110.88C0.6225 108.6 1.25583 106.787 2.5225 105.44C3.77583 104.107 5.4425 103.44 7.5225 103.44C9.18917 103.44 10.6092 103.887 11.7825 104.78C12.9558 105.673 13.6892 106.967 13.9825 108.66H11.2425C11.0025 107.727 10.5558 107.02 9.9025 106.54C9.2625 106.047 8.46917 105.8 7.5225 105.8C6.25583 105.8 5.25583 106.253 4.5225 107.16C3.8025 108.053 3.4425 109.293 3.4425 110.88C3.4425 112.48 3.8025 113.727 4.5225 114.62C5.2425 115.513 6.2425 115.96 7.5225 115.96C8.50917 115.96 9.35583 115.667 10.0625 115.08C10.7692 114.493 11.1958 113.68 11.3425 112.64H14.0425C13.8692 114.453 13.1625 115.853 11.9225 116.84C10.6958 117.827 9.22917 118.32 7.5225 118.32ZM21.2347 107.44C22.3547 107.44 23.2347 107.767 23.8747 108.42C24.528 109.06 24.8547 109.973 24.8547 111.16V118H22.3347V111.58C22.3347 110.273 21.688 109.62 20.3947 109.62C19.7547 109.62 19.208 109.853 18.7547 110.32C18.3147 110.773 18.0947 111.407 18.0947 112.22V118H15.5747V103.76H18.0947V109.06C18.8814 107.98 19.928 107.44 21.2347 107.44ZM36.6428 113.02V113.62H28.9228C29.0161 114.5 29.2895 115.167 29.7428 115.62C30.2095 116.06 30.8295 116.28 31.6028 116.28C32.7495 116.28 33.5361 115.787 33.9628 114.8H36.3828C36.1161 115.853 35.5561 116.693 34.7028 117.32C33.8495 117.933 32.8095 118.24 31.5828 118.24C30.0495 118.24 28.8095 117.747 27.8628 116.76C26.9161 115.773 26.4428 114.467 26.4428 112.84C26.4428 111.213 26.9095 109.907 27.8428 108.92C28.7895 107.933 30.0228 107.44 31.5428 107.44C33.1028 107.44 34.3428 107.953 35.2628 108.98C36.1828 110.007 36.6428 111.353 36.6428 113.02ZM31.5228 109.4C30.0428 109.4 29.1828 110.22 28.9428 111.86H34.1228C34.0161 111.1 33.7361 110.5 33.2828 110.06C32.8295 109.62 32.2428 109.4 31.5228 109.4ZM42.91 118.24C41.39 118.24 40.1567 117.747 39.21 116.76C38.2767 115.787 37.81 114.48 37.81 112.84C37.81 111.187 38.2767 109.873 39.21 108.9C40.13 107.927 41.3633 107.44 42.91 107.44C44.2567 107.44 45.3567 107.8 46.21 108.52C47.0633 109.227 47.5633 110.187 47.71 111.4H45.19C45.07 110.8 44.81 110.34 44.41 110.02C44.01 109.7 43.51 109.54 42.91 109.54C42.1233 109.54 41.5033 109.827 41.05 110.4C40.61 110.96 40.39 111.773 40.39 112.84C40.39 113.907 40.6167 114.727 41.07 115.3C41.5233 115.86 42.1367 116.14 42.91 116.14C43.5233 116.14 44.0367 115.973 44.45 115.64C44.8767 115.293 45.1367 114.8 45.23 114.16H47.75C47.6167 115.4 47.11 116.393 46.23 117.14C45.35 117.873 44.2433 118.24 42.91 118.24ZM59.0494 118H56.1694L53.1694 113.2L51.6094 114.76V118H49.1294V103.76H51.6094V111.96L55.8094 107.68H58.8094L54.9094 111.58L59.0494 118ZM69.8219 107.68V109.6H67.7819V115.18C67.7819 115.513 67.8685 115.747 68.0419 115.88C68.2285 116.013 68.5352 116.08 68.9619 116.08H69.8219V118C69.2752 118.053 68.8352 118.08 68.5019 118.08C67.3819 118.08 66.5619 117.873 66.0419 117.46C65.5352 117.033 65.2819 116.36 65.2819 115.44V109.6H63.6819V107.68H65.2819V104.68H67.7819V107.68H69.8219ZM76.9573 107.44C78.0773 107.44 78.9573 107.767 79.5973 108.42C80.2507 109.06 80.5773 109.973 80.5773 111.16V118H78.0573V111.58C78.0573 110.273 77.4107 109.62 76.1173 109.62C75.4773 109.62 74.9307 109.853 74.4773 110.32C74.0373 110.773 73.8173 111.407 73.8173 112.22V118H71.2973V103.76H73.8173V109.06C74.604 107.98 75.6507 107.44 76.9573 107.44ZM92.3655 113.02V113.62H84.6455C84.7388 114.5 85.0121 115.167 85.4655 115.62C85.9321 116.06 86.5521 116.28 87.3255 116.28C88.4721 116.28 89.2588 115.787 89.6855 114.8H92.1055C91.8388 115.853 91.2788 116.693 90.4255 117.32C89.5721 117.933 88.5321 118.24 87.3055 118.24C85.7721 118.24 84.5321 117.747 83.5855 116.76C82.6388 115.773 82.1655 114.467 82.1655 112.84C82.1655 111.213 82.6321 109.907 83.5655 108.92C84.5121 107.933 85.7455 107.44 87.2655 107.44C88.8255 107.44 90.0655 107.953 90.9855 108.98C91.9055 110.007 92.3655 111.353 92.3655 113.02ZM87.2455 109.4C85.7655 109.4 84.9055 110.22 84.6655 111.86H89.8455C89.7388 111.1 89.4588 110.5 89.0055 110.06C88.5521 109.62 87.9655 109.4 87.2455 109.4ZM107.589 110.5C108.376 110.78 108.982 111.227 109.409 111.84C109.849 112.453 110.069 113.147 110.069 113.92C110.069 115.213 109.642 116.22 108.789 116.94C107.949 117.647 106.722 118 105.109 118H98.4491V103.76H104.889C106.382 103.76 107.522 104.1 108.309 104.78C109.096 105.46 109.489 106.347 109.489 107.44C109.489 108.84 108.856 109.86 107.589 110.5ZM104.689 105.98H101.149V109.7H104.689C105.369 109.7 105.889 109.533 106.249 109.2C106.622 108.853 106.809 108.38 106.809 107.78C106.809 107.22 106.622 106.78 106.249 106.46C105.876 106.14 105.356 105.98 104.689 105.98ZM101.149 115.76H104.969C105.729 115.76 106.309 115.593 106.709 115.26C107.109 114.913 107.309 114.427 107.309 113.8C107.309 112.48 106.529 111.82 104.969 111.82H101.149V115.76ZM121.767 112.84C121.767 114.467 121.287 115.773 120.327 116.76C119.367 117.747 118.1 118.24 116.527 118.24C114.954 118.24 113.687 117.747 112.727 116.76C111.754 115.787 111.267 114.48 111.267 112.84C111.267 111.2 111.754 109.893 112.727 108.92C113.687 107.933 114.954 107.44 116.527 107.44C118.1 107.44 119.367 107.927 120.327 108.9C121.287 109.873 121.767 111.187 121.767 112.84ZM114.547 115.3C115.027 115.873 115.687 116.16 116.527 116.16C117.367 116.16 118.02 115.873 118.487 115.3C118.967 114.713 119.207 113.893 119.207 112.84C119.207 111.787 118.967 110.973 118.487 110.4C118.02 109.813 117.367 109.52 116.527 109.52C115.687 109.52 115.027 109.807 114.547 110.38C114.08 110.953 113.847 111.773 113.847 112.84C113.847 113.907 114.08 114.727 114.547 115.3ZM132.511 118H129.991C129.871 117.787 129.778 117.367 129.711 116.74C129.018 117.74 127.911 118.24 126.391 118.24C125.258 118.24 124.351 117.967 123.671 117.42C123.004 116.873 122.671 116.113 122.671 115.14C122.671 113.26 123.991 112.187 126.631 111.92L128.191 111.78C128.711 111.713 129.084 111.593 129.311 111.42C129.538 111.233 129.651 110.96 129.651 110.6C129.651 110.16 129.504 109.84 129.211 109.64C128.931 109.427 128.451 109.32 127.771 109.32C127.038 109.32 126.511 109.447 126.191 109.7C125.871 109.94 125.684 110.36 125.631 110.96H123.151C123.298 108.613 124.844 107.44 127.791 107.44C130.658 107.44 132.091 108.473 132.091 110.54V116.04C132.091 116.947 132.231 117.6 132.511 118ZM126.991 116.44C127.778 116.44 128.418 116.227 128.911 115.8C129.404 115.36 129.651 114.733 129.651 113.92V112.98C129.411 113.193 129.018 113.333 128.471 113.4L127.111 113.56C126.444 113.64 125.964 113.8 125.671 114.04C125.391 114.267 125.251 114.6 125.251 115.04C125.251 115.48 125.398 115.827 125.691 116.08C125.998 116.32 126.431 116.44 126.991 116.44ZM139.532 107.52C139.759 107.52 139.966 107.533 140.152 107.56V109.88H139.512C138.552 109.88 137.812 110.127 137.292 110.62C136.786 111.1 136.532 111.813 136.532 112.76V118H134.012V107.68H136.452V109.52C137.026 108.187 138.052 107.52 139.532 107.52ZM148.403 109.02V103.76H150.923V118H148.483V116.56C147.723 117.68 146.637 118.24 145.223 118.24C143.797 118.24 142.67 117.747 141.843 116.76C141.003 115.773 140.583 114.467 140.583 112.84C140.583 111.187 141.003 109.873 141.843 108.9C142.657 107.927 143.783 107.44 145.223 107.44C146.61 107.44 147.67 107.967 148.403 109.02ZM143.163 112.92C143.163 113.987 143.397 114.793 143.863 115.34C144.33 115.887 144.977 116.16 145.803 116.16C146.63 116.16 147.283 115.873 147.763 115.3C148.23 114.727 148.463 113.907 148.463 112.84C148.463 111.773 148.23 110.953 147.763 110.38C147.297 109.807 146.643 109.52 145.803 109.52C144.99 109.52 144.343 109.82 143.863 110.42C143.397 111.02 143.163 111.853 143.163 112.92Z" fill="#009BD6"/>
</svg>
